<svg xmlns="http://www.w3.org/2000/svg" width="26" height="26" viewBox="0 0 26 26"><g fill="#fff" transform="translate(5 -1031.362)"><circle cx="657.054" cy="437.094" r="15.268" fill="#9257a2" fill-rule="evenodd" transform="translate(-551.456 672.193) scale(.85146)"/><path fill="#6c4676" style="line-height:normal;text-indent:0;text-align:start;text-decoration-line:none;text-decoration-style:solid;text-decoration-color:#000;text-transform:none;block-progression:tb;isolation:auto;mix-blend-mode:normal" d="M 15.125 25.808594 A 12.999997 12.999997 0 0 0 15.582031 25.740234 A 12.999997 12.999997 0 0 0 16.841797 25.419922 A 12.999997 12.999997 0 0 0 18.0625 24.974609 A 12.999997 12.999997 0 0 0 19.232422 24.408203 A 12.999997 12.999997 0 0 0 20.339844 23.728516 A 12.999997 12.999997 0 0 0 21.375 22.943359 A 12.999997 12.999997 0 0 0 22.326172 22.056641 A 12.999997 12.999997 0 0 0 23.183594 21.080078 A 12.999997 12.999997 0 0 0 23.939453 20.023438 A 12.999997 12.999997 0 0 0 24.585938 18.896484 A 12.999997 12.999997 0 0 0 25.117188 17.710938 A 12.999997 12.999997 0 0 0 25.525391 16.476562 A 12.999997 12.999997 0 0 0 25.798828 15.257812 L 20.492188 9.9511719 L 12.998047 7.0097656 L 5.5078125 9.9511719 L 6.8769531 11.320312 L 5.2695312 11.953125 L 6.7050781 13.388672 L 5.2675781 13.953125 L 6.703125 15.388672 L 5.2695312 15.953125 L 15.125 25.808594 z " color="#000" font-family="sans-serif" font-weight="400" transform="translate(-5 1031.362)" white-space="normal"/><path style="line-height:normal;text-indent:0;text-align:start;text-decoration-line:none;text-decoration-style:solid;text-decoration-color:#000;text-transform:none;block-progression:tb;isolation:auto;mix-blend-mode:normal" d="m 7.9980469,2.1132812 -7.4902344,2.9433594 0.5644531,0.2226563 1.8632813,0.7324219 -2.66601565,1.046875 2.54492185,1 -2.54687498,1 2.54687498,1.0000002 -2.54492185,1 L 8,14.095703 l 7.730469,-3.037109 -2.544922,-1 2.546875,-1.0000002 -2.544922,-1 2.542969,-1 L 13.064453,6.0097656 15.492188,5.0566406 7.9980469,2.1132812 Z M 8,3 13.236328,5.0566406 8,7.1132812 2.765625,5.0566406 8,3 Z M 4.3007812,6.546875 8,8 11.699219,6.546875 12.996094,7.0566406 8,9.0195312 3.0039062,7.0566406 4.3007812,6.546875 Z M 4.1796875,8.59375 8,10.095703 11.820312,8.5957031 12.996094,9.0566406 11.679688,9.5742188 8,11.019531 4.3847656,9.5996094 3.0039062,9.0566406 4.1796875,8.59375 Z m 0.00195,2 L 8,12.095703 l 3.818359,-1.5 1.177735,0.460938 L 8,13.019531 3.0039062,11.056641 4.1816406,10.59375 Z" color="#000" font-family="sans-serif" font-weight="400" overflow="visible" transform="translate(0 1036.258)" white-space="normal"/></g></svg>